<svg viewBox="0 0 11 21" fill="none" xmlns="http://www.w3.org/2000/svg">
<path d="M10.4058 0.504161L7.81228 0.5C4.89852 0.5 3.01551 2.4319 3.01551 5.42203V7.69141H0.407811C0.182475 7.69141 0 7.87409 0 8.09943V11.3875C0 11.6128 0.182683 11.7953 0.407811 11.7953H3.01551V20.0922C3.01551 20.3175 3.19799 20.5 3.42332 20.5H6.82563C7.05097 20.5 7.23344 20.3173 7.23344 20.0922V11.7953H10.2825C10.5078 11.7953 10.6903 11.6128 10.6903 11.3875L10.6915 8.09943C10.6915 7.99124 10.6484 7.88762 10.5721 7.81105C10.4957 7.73448 10.3917 7.69141 10.2835 7.69141H7.23344V5.76763C7.23344 4.84298 7.45378 4.37358 8.65828 4.37358L10.4054 4.37295C10.6305 4.37295 10.813 4.19027 10.813 3.96514V0.911972C10.813 0.687052 10.6308 0.504577 10.4058 0.504161Z" fill="white"/>
</svg>
